<svg width="63" height="113" viewBox="0 0 63 113" fill="none" xmlns="http://www.w3.org/2000/svg">
<path d="M31.5 61L31.5 9.53674e-07" stroke="url(#paint0_linear_2_217)"/>
<path d="M4.56 104.192C6.672 104.192 8.256 102.976 8.256 101.024C8.256 99.584 7.408 98.72 5.648 97.936L4.448 97.408C3.504 96.976 3.216 96.72 3.216 96.192C3.216 95.536 3.76 95.168 4.528 95.168C5.28 95.168 5.76 95.536 6.192 95.92C6.384 96.08 6.592 96.144 6.784 96.144C7.28 96.144 7.776 95.728 7.776 95.184C7.776 94.976 7.712 94.736 7.488 94.496C7.04 93.984 6.112 93.248 4.528 93.248C2.528 93.248 1.024 94.464 1.024 96.24C1.024 97.6 1.904 98.512 3.584 99.28L4.72 99.792C5.696 100.24 6.064 100.496 6.064 101.104C6.064 101.824 5.504 102.272 4.56 102.272C3.488 102.272 2.736 101.632 2.304 101.184C2.144 101.04 1.936 100.976 1.744 100.976C1.232 100.976 0.768 101.36 0.752 101.936C0.752 102.24 0.896 102.512 1.152 102.768C1.936 103.632 3.312 104.192 4.56 104.192ZM15.8015 104.192C17.4335 104.192 18.9535 103.504 19.8815 102.368C20.1215 102.08 20.2175 101.824 20.2175 101.568C20.2175 101.04 19.7855 100.592 19.2255 100.592C18.9055 100.592 18.6335 100.736 18.3775 101.008C17.6735 101.808 16.8255 102.192 15.8175 102.192C13.8335 102.192 12.4095 100.752 12.4095 98.736C12.4095 96.704 13.8335 95.248 15.8175 95.248C16.8415 95.248 17.7055 95.632 18.3935 96.432C18.6335 96.704 18.9215 96.848 19.2255 96.848C19.7855 96.848 20.2335 96.4 20.2335 95.872C20.2335 95.584 20.1215 95.328 19.8975 95.072C18.9535 93.936 17.4335 93.248 15.8175 93.248C12.6495 93.248 10.1855 95.648 10.1855 98.72C10.1855 101.792 12.6335 104.192 15.8015 104.192ZM30.9651 102.384L29.0611 99.744C30.0851 99.152 30.7091 98.112 30.7091 96.832C30.7091 94.816 29.1731 93.44 26.9171 93.44H24.0371C23.3971 93.44 22.9331 93.904 22.9331 94.528V103.088C22.9331 103.712 23.3971 104.192 24.0211 104.192C24.6291 104.192 25.0931 103.712 25.0931 103.088V100.272H26.9171H26.9331L29.3011 103.632C29.5571 104 29.8771 104.192 30.2611 104.192C30.8051 104.192 31.2691 103.744 31.2691 103.2C31.2691 102.944 31.1571 102.672 30.9651 102.384ZM25.0931 95.344H26.9011C27.8771 95.344 28.5011 95.936 28.5011 96.848C28.5011 97.776 27.8931 98.368 26.9011 98.368H25.0931V95.344ZM38.5811 93.248C35.4451 93.248 32.9811 95.648 32.9811 98.72C32.9811 101.792 35.4291 104.192 38.5811 104.192C41.7331 104.192 44.2131 101.776 44.2131 98.72C44.2131 95.664 41.7331 93.248 38.5811 93.248ZM38.5971 95.248C40.5651 95.248 41.9891 96.704 41.9891 98.72C41.9891 100.736 40.5651 102.192 38.5971 102.192C36.6131 102.192 35.2051 100.752 35.2051 98.72C35.2051 96.688 36.6131 95.248 38.5971 95.248ZM47.7703 104H52.5863C53.1623 104 53.5783 103.584 53.5783 103.024C53.5783 102.48 53.1623 102.048 52.5863 102.048H48.8263V94.352C48.8263 93.728 48.3783 93.248 47.7543 93.248C47.1143 93.248 46.6663 93.776 46.6663 94.352V102.896C46.6663 103.536 47.1303 104 47.7703 104ZM56.7853 104H61.6013C62.1773 104 62.5933 103.584 62.5933 103.024C62.5933 102.48 62.1773 102.048 61.6013 102.048H57.8413V94.352C57.8413 93.728 57.3933 93.248 56.7693 93.248C56.1293 93.248 55.6813 93.776 55.6813 94.352V102.896C55.6813 103.536 56.1453 104 56.7853 104Z" fill="white"/>
<defs>
<linearGradient id="paint0_linear_2_217" x1="60.0042" y1="-11.8571" x2="60.0042" y2="78.2931" gradientUnits="userSpaceOnUse">
<stop stop-color="white"/>
<stop offset="0.430036" stop-color="white"/>
<stop offset="0.927083" stop-color="white" stop-opacity="0.24"/>
</linearGradient>
</defs>
</svg>
