<svg width="104" height="24" viewBox="0 0 104 24" fill="none" xmlns="http://www.w3.org/2000/svg">
<path d="M15.1194 5.32003H16.9994V2.14003C16.0891 2.04538 15.1745 1.99865 14.2594 2.00003C11.5394 2.00003 9.67938 3.66003 9.67938 6.70003V9.32003H6.60938V12.88H9.67938V22H13.3594V12.88H16.4194L16.8794 9.32003H13.3594V7.05003C13.3594 6.00003 13.6394 5.32003 15.1194 5.32003Z" fill="white"/>
<path d="M62.9924 3.94923C62.9925 3.7726 62.9458 3.59909 62.8571 3.44637C62.7683 3.29366 62.6407 3.1672 62.4871 3.07986C62.3336 2.99253 62.1597 2.94744 61.983 2.94919C61.8064 2.95095 61.6334 2.99948 61.4816 3.08985C60.8963 3.43823 60.2662 3.70503 59.6086 3.88285C58.6696 3.07708 57.472 2.63615 56.2347 2.64066C54.8772 2.64222 53.5735 3.17125 52.5989 4.11604C51.6242 5.06083 51.0548 6.34742 51.011 7.70414C48.335 7.2774 45.9097 5.88066 44.1975 3.78028C44.0943 3.65511 43.9626 3.55659 43.8133 3.49303C43.6641 3.42946 43.5018 3.40271 43.34 3.41503C43.1784 3.42834 43.0224 3.48082 42.8856 3.56794C42.7488 3.65506 42.6353 3.77419 42.5549 3.91503C42.1424 4.63484 41.9055 5.44179 41.8634 6.27034C41.8214 7.09889 41.9753 7.92568 42.3127 8.68358L42.3107 8.68553C42.1591 8.77893 42.0339 8.90969 41.9473 9.06528C41.8606 9.22087 41.8152 9.3961 41.8156 9.57421C41.8138 9.72114 41.8226 9.86801 41.842 10.0137C41.9441 11.2719 42.5018 12.4497 43.4104 13.3262C43.3487 13.4436 43.3111 13.5721 43.2997 13.7042C43.2883 13.8364 43.3033 13.9694 43.3439 14.0957C43.7401 15.3298 44.5824 16.3718 45.7063 17.0176C44.5645 17.4591 43.3317 17.613 42.1164 17.4658C41.8915 17.4376 41.6636 17.4866 41.4703 17.6049C41.2769 17.7232 41.1294 17.9037 41.0521 18.1168C40.9748 18.3299 40.9722 18.563 41.0448 18.7777C41.1173 18.9925 41.2607 19.1762 41.4514 19.2988C43.5415 20.645 45.9751 21.3607 48.4612 21.3604C51.2804 21.3921 54.0311 20.4912 56.2854 18.7978C58.5397 17.1044 60.1711 14.7135 60.926 11.997C61.2791 10.8137 61.4593 9.5855 61.4612 8.35059C61.4612 8.28516 61.4612 8.21778 61.4602 8.1504C61.9823 7.58733 62.3868 6.9257 62.6499 6.2043C62.913 5.48289 63.0294 4.71622 62.9924 3.94923ZM59.6857 7.16114C59.5206 7.35648 59.437 7.60794 59.4523 7.86329C59.4621 8.02829 59.4611 8.19429 59.4611 8.35059C59.4591 9.39413 59.3061 10.4319 59.007 11.4316C58.3905 13.743 57.0162 15.7807 55.1041 17.2182C53.192 18.6558 50.8529 19.4101 48.4612 19.3604C47.6021 19.3606 46.7459 19.2597 45.9104 19.0596C46.9758 18.7162 47.972 18.1869 48.8528 17.4961C49.015 17.3684 49.1337 17.1936 49.1927 16.9957C49.2516 16.7978 49.2479 16.5865 49.182 16.3908C49.116 16.1952 48.9912 16.0247 48.8246 15.9028C48.6579 15.7809 48.4576 15.7135 48.2512 15.71C47.42 15.697 46.6263 15.362 46.0373 14.7754C46.1867 14.7471 46.3352 14.7119 46.4826 14.6699C46.6986 14.6084 46.8877 14.476 47.0193 14.2941C47.1509 14.1121 47.2174 13.8911 47.2082 13.6667C47.199 13.4423 47.1145 13.2275 46.9683 13.057C46.8222 12.8865 46.6229 12.7701 46.4025 12.7266C45.9201 12.6313 45.4661 12.426 45.0759 12.1268C44.6856 11.8275 44.3697 11.4422 44.1525 11.001C44.3333 11.0256 44.5152 11.041 44.6975 11.0469C44.9141 11.0502 45.1261 10.9845 45.3028 10.8593C45.4796 10.7341 45.612 10.556 45.6809 10.3506C45.7468 10.1434 45.7435 9.92025 45.6712 9.71512C45.5989 9.50999 45.4618 9.33401 45.2805 9.21387C44.8406 8.92084 44.4803 8.52329 44.2318 8.05683C43.9833 7.59036 43.8544 7.06955 43.8566 6.54103C43.8566 6.47463 43.8586 6.40822 43.8625 6.34279C46.1038 8.43304 49.0108 9.66524 52.0715 9.82228C52.226 9.82837 52.3799 9.79927 52.5215 9.73718C52.6631 9.67509 52.7887 9.58164 52.8889 9.46388C52.9881 9.34498 53.0583 9.20469 53.0941 9.05404C53.1298 8.90339 53.1301 8.7465 53.0949 8.59572C53.0377 8.35708 53.0085 8.11259 53.008 7.8672C53.0089 7.01173 53.3491 6.19157 53.954 5.58667C54.5589 4.98176 55.3791 4.64153 56.2346 4.64063C56.6747 4.63945 57.1103 4.72953 57.5139 4.90518C57.9174 5.08082 58.2802 5.33823 58.5793 5.66114C58.6946 5.78522 58.8398 5.87773 59.001 5.92987C59.1622 5.98202 59.334 5.99205 59.5002 5.95903C59.911 5.87909 60.3159 5.77142 60.7121 5.63677C60.4418 6.18974 60.0964 6.70272 59.6857 7.16114Z" fill="white"/>
<path d="M97.34 5.46C97.1027 5.46 96.8707 5.53038 96.6733 5.66224C96.476 5.79409 96.3222 5.98151 96.2313 6.20078C96.1405 6.42005 96.1168 6.66133 96.1631 6.89411C96.2094 7.12689 96.3236 7.34071 96.4915 7.50853C96.6593 7.67635 96.8731 7.79064 97.1059 7.83694C97.3387 7.88324 97.5799 7.85948 97.7992 7.76866C98.0185 7.67783 98.2059 7.52402 98.3378 7.32668C98.4696 7.12935 98.54 6.89734 98.54 6.66C98.54 6.34174 98.4136 6.03652 98.1885 5.81147C97.9635 5.58643 97.6583 5.46 97.34 5.46ZM101.94 7.88C101.921 7.0503 101.765 6.2294 101.48 5.45C101.226 4.78313 100.83 4.17928 100.32 3.68C99.8248 3.16743 99.2196 2.77418 98.55 2.53C97.7727 2.23616 96.9508 2.07721 96.12 2.06C95.06 2 94.72 2 92 2C89.28 2 88.94 2 87.88 2.06C87.0492 2.07721 86.2273 2.23616 85.45 2.53C84.7817 2.77665 84.1769 3.16956 83.68 3.68C83.1674 4.17518 82.7742 4.78044 82.53 5.45C82.2362 6.22734 82.0772 7.04915 82.06 7.88C82 8.94 82 9.28 82 12C82 14.72 82 15.06 82.06 16.12C82.0772 16.9508 82.2362 17.7727 82.53 18.55C82.7742 19.2196 83.1674 19.8248 83.68 20.32C84.1769 20.8304 84.7817 21.2234 85.45 21.47C86.2273 21.7638 87.0492 21.9228 87.88 21.94C88.94 22 89.28 22 92 22C94.72 22 95.06 22 96.12 21.94C96.9508 21.9228 97.7727 21.7638 98.55 21.47C99.2196 21.2258 99.8248 20.8326 100.32 20.32C100.832 19.8226 101.228 19.2182 101.48 18.55C101.765 17.7706 101.921 16.9497 101.94 16.12C101.94 15.06 102 14.72 102 12C102 9.28 102 8.94 101.94 7.88ZM100.14 16C100.133 16.6348 100.018 17.2637 99.8 17.86C99.6403 18.2952 99.3839 18.6884 99.05 19.01C98.7256 19.3405 98.3332 19.5964 97.9 19.76C97.3037 19.9778 96.6748 20.0927 96.04 20.1C95.04 20.15 94.67 20.16 92.04 20.16C89.41 20.16 89.04 20.16 88.04 20.1C87.3809 20.1123 86.7246 20.0109 86.1 19.8C85.6858 19.6281 85.3114 19.3728 85 19.05C84.6681 18.7287 84.4148 18.3352 84.26 17.9C84.0159 17.2952 83.8804 16.6519 83.86 16C83.86 15 83.8 14.63 83.8 12C83.8 9.37 83.8 9 83.86 8C83.8645 7.35106 83.983 6.70795 84.21 6.1C84.386 5.67791 84.6563 5.30166 85 5C85.3038 4.65617 85.6793 4.3831 86.1 4.2C86.7096 3.98004 87.352 3.86508 88 3.86C89 3.86 89.37 3.8 92 3.8C94.63 3.8 95 3.8 96 3.86C96.6348 3.86728 97.2637 3.98225 97.86 4.2C98.3144 4.36865 98.7223 4.64285 99.05 5C99.3777 5.30718 99.6338 5.68273 99.8 6.1C100.022 6.70893 100.137 7.35178 100.14 8C100.19 9 100.2 9.37 100.2 12C100.2 14.63 100.19 15 100.14 16ZM92 6.87C90.9858 6.87198 89.995 7.17453 89.1527 7.73942C88.3103 8.30431 87.6544 9.1062 87.2676 10.0438C86.8809 10.9813 86.7807 12.0125 86.9798 13.0069C87.1789 14.0014 87.6682 14.9145 88.3861 15.631C89.1039 16.3474 90.018 16.835 91.0129 17.0321C92.0077 17.2293 93.0387 17.1271 93.9755 16.7385C94.9123 16.35 95.7129 15.6924 96.2761 14.849C96.8394 14.0056 97.14 13.0142 97.14 12C97.1413 11.3251 97.0092 10.6566 96.7512 10.033C96.4933 9.40931 96.1146 8.84281 95.6369 8.36605C95.1592 7.88929 94.5919 7.51168 93.9678 7.25493C93.3436 6.99818 92.6749 6.86736 92 6.87ZM92 15.33C91.3414 15.33 90.6976 15.1347 90.15 14.7688C89.6023 14.4029 89.1755 13.8828 88.9235 13.2743C88.6714 12.6659 88.6055 11.9963 88.734 11.3503C88.8625 10.7044 89.1796 10.111 89.6453 9.64533C90.111 9.17963 90.7044 8.86247 91.3503 8.73398C91.9963 8.6055 92.6659 8.67144 93.2743 8.92348C93.8828 9.17552 94.4029 9.60234 94.7688 10.15C95.1347 10.6976 95.33 11.3414 95.33 12C95.33 12.4373 95.2439 12.8703 95.0765 13.2743C94.9092 13.6784 94.6639 14.0454 94.3547 14.3547C94.0454 14.6639 93.6784 14.9092 93.2743 15.0765C92.8703 15.2439 92.4373 15.33 92 15.33Z" fill="white"/>
</svg>
